<svg viewBox="0 0 34 34" xmlns="http://www.w3.org/2000/svg" xmlns:xlink="http://www.w3.org/1999/xlink" width="34.000000" height="34.000000" fill="none">
	<rect id="Icon" width="34.000000" height="34.000000" x="0.000000" y="0.000000" />
	<path id="Union" d="M29.1802 2.125C28.6484 2.125 28.1285 2.28241 27.6861 2.57739L20.4908 7.37422C18.5564 8.6638 16.8067 10.197 15.2818 11.9303C15.9223 12.2231 16.5333 12.5607 17.1147 12.9433L17.1147 12.9433C17.8905 13.4538 18.6136 14.0443 19.2841 14.7148C19.9546 15.3853 20.5451 16.1084 21.0556 16.8842C21.4381 17.4656 21.7758 18.0765 22.0685 18.717C23.8018 17.1921 25.335 15.4424 26.6246 13.508L31.4214 6.31279C31.7164 5.87032 31.8738 5.35042 31.8738 4.81863C31.8738 3.33098 30.6679 2.125 29.1802 2.125ZM17.4232 21.9936C18.4807 21.4061 19.4936 20.7488 20.456 20.0274C20.4339 19.9729 20.4114 19.9185 20.3884 19.8642C20.111 19.2084 19.7803 18.5876 19.3963 18.0017C18.9572 17.3318 18.4484 16.7075 17.8698 16.129C17.2913 15.5504 16.667 15.0416 15.997 14.6025L15.997 14.6024C15.4112 14.2185 14.7904 13.8878 14.1347 13.6105C14.0804 13.5875 14.026 13.565 13.9714 13.5428C13.25 14.5052 12.5927 15.5182 12.0052 16.5757L11.6107 17.2859C14.0707 17.9895 16.0093 19.9282 16.7129 22.3882L17.4232 21.9936ZM9.56134 19.125C6.62729 19.125 4.24884 21.5035 4.24884 24.4375C4.24884 25.6111 3.29745 26.5625 2.12384 26.5625C2.07572 26.5625 2.02783 26.5609 1.98025 26.5577C1.58903 26.5319 1.21537 26.7236 1.00816 27.0564C0.800953 27.3893 0.793886 27.8092 0.989776 28.1488C2.27299 30.3736 4.67867 31.875 7.43634 31.875C11.544 31.875 14.8738 28.5451 14.8738 24.4375C14.8738 21.5035 12.4954 19.125 9.56134 19.125Z" fill="rgb(38.25,38.25,38.25)" fill-rule="evenodd" />
</svg>
