<svg viewBox="0 0 34 34" xmlns="http://www.w3.org/2000/svg" xmlns:xlink="http://www.w3.org/1999/xlink" width="34.000000" height="34.000000" fill="none">
	<rect id="Icon" width="34.000000" height="34.000000" x="0.000000" y="0.000000" />
	<path id="Vector (Stroke)" d="M28.2648 2.33926C28.531 2.54004 28.6875 2.85411 28.6875 3.18751L28.6875 8.47654C28.6879 8.49258 28.6879 8.50858 28.6875 8.52454L28.6875 23.0957C28.6875 24.9932 27.4296 26.6609 25.6051 27.1821L23.7351 27.7164C21.4248 28.3765 19.125 26.6418 19.125 24.239C19.125 22.6243 20.1954 21.2052 21.748 20.7616L25.0213 19.8264C25.9335 19.5658 26.5625 18.7319 26.5625 17.7832L26.5625 9.9086L13.8125 13.5515L13.8125 27.3457C13.8125 29.2432 12.5546 30.9109 10.7301 31.4321L8.86009 31.9664C6.54978 32.6265 4.25 30.8918 4.25 28.489C4.25 26.8743 5.32042 25.4552 6.87301 25.0116L10.1463 24.0764C11.0585 23.8158 11.6875 22.9819 11.6875 22.0332L11.6875 12.7735C11.6871 12.7574 11.6871 12.7414 11.6875 12.7255L11.6875 7.43751C11.6875 6.96312 12.002 6.54621 12.4581 6.41589L27.3331 2.16589C27.6537 2.0743 27.9987 2.13849 28.2648 2.33926Z" fill="rgb(38.25,38.25,38.25)" fill-rule="evenodd" />
</svg>
