<svg viewBox="0 0 34 34" xmlns="http://www.w3.org/2000/svg" xmlns:xlink="http://www.w3.org/1999/xlink" width="34.000000" height="34.000000" fill="none">
	<rect id="Icon" width="34.000000" height="34.000000" x="0.000000" y="0.000000" />
	<path id="Vector" d="M25.5 2.125C25.9875 2.125 26.4125 2.45682 26.5308 2.92981L26.8975 4.39671C27.2306 5.72908 28.2709 6.7694 29.6033 7.1025L31.0702 7.46922C31.5432 7.58747 31.875 8.01245 31.875 8.5C31.875 8.98755 31.5432 9.41253 31.0702 9.53078L29.6033 9.8975C28.2709 10.2306 27.2306 11.2709 26.8975 12.6033L26.5308 14.0702C26.4125 14.5432 25.9875 14.875 25.5 14.875C25.0125 14.875 24.5875 14.5432 24.4692 14.0702L24.1025 12.6033C23.7694 11.2709 22.7291 10.2306 21.3967 9.8975L19.9298 9.53078C19.4568 9.41253 19.125 8.98755 19.125 8.5C19.125 8.01245 19.4568 7.58747 19.9298 7.46922L21.3967 7.1025C22.7291 6.7694 23.7694 5.72908 24.1025 4.39671L24.4692 2.92981C24.5875 2.45682 25.0125 2.125 25.5 2.125ZM13.7716 7.14561C13.6413 6.68948 13.2244 6.375 12.75 6.375C12.2756 6.375 11.8587 6.68948 11.7284 7.14561L10.5764 11.1777C10.0721 12.9426 8.69257 14.3221 6.92771 14.8264L2.89561 15.9784C2.43948 16.1087 2.125 16.5256 2.125 17C2.125 17.4744 2.43948 17.8913 2.89561 18.0216L6.92771 19.1736C8.69256 19.6779 10.0721 21.0574 10.5764 22.8223L11.7284 26.8544C11.8587 27.3105 12.2756 27.625 12.75 27.625C13.2244 27.625 13.6413 27.3105 13.7716 26.8544L14.9236 22.8223C15.4279 21.0574 16.8074 19.6779 18.5723 19.1736L22.6044 18.0216C23.0605 17.8913 23.375 17.4744 23.375 17C23.375 16.5256 23.0605 16.1087 22.6044 15.9784L18.5723 14.8264C16.8074 14.3221 15.4279 12.9426 14.9236 11.1777L13.7716 7.14561ZM24.383 21.9765C24.2384 21.5426 23.8323 21.25 23.375 21.25C22.9177 21.25 22.5116 21.5426 22.367 21.9765L21.8085 23.652C21.597 24.2866 21.0991 24.7845 20.4645 24.996L18.789 25.5545C18.3551 25.6991 18.0625 26.1052 18.0625 26.5625C18.0625 27.0198 18.3551 27.4259 18.789 27.5705L20.4645 28.129C21.0991 28.3405 21.597 28.8384 21.8085 29.473L22.367 31.1485C22.5116 31.5824 22.9177 31.875 23.375 31.875C23.8323 31.875 24.2384 31.5824 24.383 31.1485L24.9415 29.473C25.153 28.8384 25.6509 28.3405 26.2855 28.129L27.961 27.5705C28.3949 27.4259 28.6875 27.0198 28.6875 26.5625C28.6875 26.1052 28.3949 25.6991 27.961 25.5545L26.2855 24.996C25.6509 24.7845 25.153 24.2866 24.9415 23.652L24.383 21.9765Z" fill="rgb(38.25,38.25,38.25)" fill-rule="evenodd" />
</svg>
