<svg viewBox="0 0 24 24" xmlns="http://www.w3.org/2000/svg" xmlns:xlink="http://www.w3.org/1999/xlink" width="24.000000" height="24.000000" fill="none">
	<rect id="Icon" width="24.000000" height="24.000000" x="0.000000" y="0.000000" />
	<path id="Subtract" d="M11.25 4.53286C9.73455 3.56279 7.93246 3 6 3C4.86178 3 3.76756 3.19535 2.75007 3.55499C2.45037 3.66091 2.25 3.94425 2.25 4.26212L2.25 18.5121C2.25 18.7556 2.36818 18.9839 2.56696 19.1245C2.76574 19.265 3.02039 19.3004 3.24993 19.2192C4.10911 18.9156 5.03441 18.75 6 18.75C7.99502 18.75 9.82325 19.4573 11.25 20.6357L11.25 4.53286ZM18 18.75C16.005 18.75 14.1768 19.4573 12.75 20.6357L12.75 4.53287C14.2655 3.56279 16.0675 3 18 3C19.1382 3 20.2324 3.19535 21.2499 3.55499C21.5496 3.66091 21.75 3.94425 21.75 4.26212L21.75 18.5121C21.75 18.7556 21.6318 18.9839 21.433 19.1245C21.2343 19.265 20.9796 19.3004 20.7501 19.2192C19.8909 18.9156 18.9656 18.75 18 18.75Z" fill="rgb(38.25,38.25,38.25)" fill-rule="evenodd" />
</svg>
