<svg viewBox="0 0 24 24" xmlns="http://www.w3.org/2000/svg" xmlns:xlink="http://www.w3.org/1999/xlink" width="24.000000" height="24.000000" fill="none">
	<rect id="Icon" width="24.000000" height="24.000000" x="0.000000" y="0.000000" />
	<path id="Vector" d="M12 3C9.92893 3 8.25 4.67893 8.25 6.75C8.25 8.82107 9.92893 10.5 12 10.5C14.0711 10.5 15.75 8.82107 15.75 6.75C15.75 4.67893 14.0711 3 12 3ZM2.25 9.75C2.25 8.09315 3.59315 6.75 5.25 6.75C6.90685 6.75 8.25 8.09315 8.25 9.75C8.25 11.4069 6.90685 12.75 5.25 12.75C3.59315 12.75 2.25 11.4069 2.25 9.75ZM18.75 6.75C17.0931 6.75 15.75 8.09315 15.75 9.75C15.75 11.4069 17.0931 12.75 18.75 12.75C20.4069 12.75 21.75 11.4069 21.75 9.75C21.75 8.09315 20.4069 6.75 18.75 6.75ZM12 12C9.60835 12 7.50783 13.2444 6.30986 15.1175C5.48141 16.4129 5.12293 17.9749 5.29103 19.4979C5.3173 19.7359 5.45559 19.947 5.66325 20.0662C7.53059 21.1376 9.69492 21.75 12 21.75C14.3051 21.75 16.4694 21.1376 18.3368 20.0662C18.5444 19.947 18.6827 19.7359 18.709 19.4979C18.877 17.9752 18.5187 16.4134 17.6906 15.1182C16.4927 13.2447 14.3919 12 12 12ZM5.08228 14.2537C5.07024 14.2722 5.05827 14.2907 5.04638 14.3093C4.08091 15.8189 3.63908 17.6167 3.77471 19.389C3.16667 19.2967 2.5767 19.1481 2.01043 18.9487L1.89547 18.9082C1.68576 18.8343 1.53923 18.6439 1.52159 18.4222L1.51192 18.3007C1.50402 18.2014 1.5 18.1011 1.5 18C1.5 15.9851 3.08905 14.3414 5.08228 14.2537ZM18.9545 14.3102C19.9196 15.8196 20.3612 17.617 20.2256 19.389C20.8336 19.2966 21.4234 19.1481 21.9896 18.9487L22.1045 18.9082C22.3142 18.8343 22.4608 18.6439 22.4784 18.4222L22.4881 18.3007C22.496 18.2014 22.5 18.1011 22.5 18C22.5 15.9853 20.9111 14.3416 18.9181 14.2537C18.9303 14.2725 18.9425 14.2913 18.9545 14.3102Z" fill="rgb(38.25,38.25,38.25)" fill-rule="evenodd" />
</svg>
