<svg viewBox="0 0 80.5801 80" xmlns="http://www.w3.org/2000/svg" xmlns:xlink="http://www.w3.org/1999/xlink" width="80.580078" height="80.000000" fill="none">
	<rect id="Icon" width="80.579674" height="80.000000" x="0.000000" y="0.000000" fill="rgb(255,255,255)" fill-opacity="0" />
	<path id="Vector" d="M49.5222 48.5743C52.6647 54.3146 55.7322 59.9101 58.7942 65.5055C61.0646 69.6571 63.3323 73.8114 65.5892 77.9684C66.4104 79.4793 66.1072 79.9946 64.3977 79.9946C48.3011 80 32.2045 80 16.1079 79.9946C14.5352 79.9946 14.1917 79.4606 14.9163 78.1321C20.5171 67.8645 26.1287 57.6021 31.7375 47.3425C31.8234 47.1868 31.9442 47.0526 32.1052 46.8299C33.5007 47.6404 34.3031 49.8839 36.187 49.2935C37.6979 48.8185 38.9539 47.5357 40.6339 46.4032C41.3638 47.1922 42.3004 48.2576 43.2961 49.264C45.4135 51.4055 46.5594 51.4055 48.6875 49.3338C48.9076 49.1191 49.1411 48.9205 49.5222 48.577L49.5222 48.5743Z" fill="rgb(38.25,38.25,38.25)" fill-rule="nonzero" />
	<path id="Vector" d="M44.6621 2.7749L67.5752 2.7749C67.2451 3.26333 67.0653 3.58805 66.8292 3.86715C65.3558 5.60617 63.8584 7.32371 62.3904 9.06541C61.0888 10.6112 61.1076 12.0953 62.4226 13.6464C64.0945 15.6135 65.7772 17.5699 67.6557 19.7598L44.6621 19.7598L44.6621 2.7749Z" fill="rgb(255,157.559,102)" fill-rule="evenodd" />
	<path id="Vector" d="M11.3868 79.898L0 79.898C4.68299 71.5249 9.23717 63.3881 13.7967 55.2351C15.7683 56.7165 17.9358 56.6029 20.2992 54.8943C20.3395 54.9131 20.3878 54.9238 20.42 54.9506C22.2019 56.4589 22.5356 58.2292 21.421 60.2616C18.4663 65.6611 15.4874 71.0473 12.5864 76.4736C12.0416 77.4934 11.8028 78.6769 11.3868 79.8953L11.3868 79.898Z" fill="rgb(38.25,38.25,38.25)" fill-rule="nonzero" />
	<path id="Vector" d="M60.0532 54.6475C62.5025 56.6405 64.7487 56.8329 66.7919 55.2244C71.3514 63.3801 75.9002 71.5143 80.5805 79.8846L69.234 79.8846C68.7697 78.6126 68.4772 77.3647 67.8895 76.2697C64.7093 70.3335 61.4755 64.4267 58.2095 58.5388C57.7425 57.6961 57.7023 57.1647 58.4806 56.5099C59.0844 56.0027 59.5191 55.2915 60.0532 54.6448L60.0532 54.6475Z" fill="rgb(38.25,38.25,38.25)" fill-rule="nonzero" />
	<path id="Vector" d="M48.1377 46.0302C47.4212 46.6501 46.7476 47.2325 45.8593 48.0054C44.7885 46.8702 43.6694 45.6223 42.4832 44.4388C40.9911 42.952 39.5527 42.995 38.0713 44.4871C37.4192 45.1419 36.7563 45.7913 35.8546 46.6877C35.2186 45.947 34.5664 45.2734 34.0351 44.5166C33.8418 44.2402 33.7694 43.6739 33.9224 43.3895C35.6587 40.1261 37.4299 36.8816 39.2333 33.6531C39.8828 32.4911 40.7415 32.5287 41.4098 33.7417C43.6265 37.7565 45.8164 41.7846 48.1377 46.0329L48.1377 46.0302Z" fill="rgb(255,157.559,102)" fill-rule="evenodd" />
	<path id="Vector" d="M41.6644 30.0168L38.8734 30.0168L38.8734 28.6776C38.8734 19.8698 38.8734 11.0621 38.8761 2.25695C38.8761 1.81146 38.7768 1.27205 38.9861 0.944641C39.2625 0.517938 39.8127 -0.0187942 40.2206 -8.56677e-06C40.709 0.0241444 41.2189 0.536724 41.6188 0.939273C41.7878 1.10834 41.7181 1.53773 41.7181 1.84904C41.7234 10.9681 41.7208 20.0899 41.7181 29.209C41.7181 29.4693 41.6832 29.7269 41.6617 30.0168L41.6644 30.0168Z" fill="rgb(255,157.559,102)" fill-rule="evenodd" />
	<path id="Vector" d="M20.2142 43.8457C20.6892 44.573 20.971 44.9541 21.2018 45.3647C22.3665 47.4257 23.5124 49.4948 24.6717 51.5559C25.2425 52.5721 25.1655 53.5623 24.4409 54.5267C23.2011 53.6223 22.0766 52.4173 20.6945 51.8913C18.9851 51.2446 18.1075 53.0802 16.7549 54.0758C16.3443 53.5391 15.9418 53.0158 15.4238 52.3368C16.9025 49.7149 18.4805 46.9185 20.2142 43.8403L20.2142 43.8457Z" fill="rgb(38.25,38.25,38.25)" fill-rule="nonzero" />
	<path id="Vector" d="M65.2537 52.5086C64.7492 53.0614 64.3037 53.5471 63.877 54.0141C61.4563 52.2715 58.9059 52.479 56.2258 54.6367C55.3134 53.7082 55.1148 52.8011 55.8743 51.5881C57.1275 49.5834 58.2091 47.474 59.3711 45.413C59.6046 44.9997 59.8756 44.6079 60.3614 43.8403C61.2926 45.4666 62.0789 46.8219 62.8491 48.1852C63.6381 49.5834 64.4137 50.9923 65.2537 52.5086Z" fill="rgb(38.25,38.25,38.25)" fill-rule="nonzero" />
</svg>
