<svg viewBox="0 0 31.5715 24.2857" xmlns="http://www.w3.org/2000/svg" xmlns:xlink="http://www.w3.org/1999/xlink" width="31.571533" height="24.285706" fill="none" customFrame="#000000">
	<rect id="crown.fill" width="31.571428" height="24.285715" x="0.000000" y="0.000061" fill="rgb(255,255,255)" fill-opacity="0" />
	<g id="Group">
		<path id="Vector" d="M31.5714 6.10352e-05L0 6.10352e-05L0 24.2858L31.5714 24.2858L31.5714 6.10352e-05Z" opacity="0" fill="rgb(38.25,38.25,38.25)" fill-rule="evenodd" />
		<path id="Vector" d="M5.26805 18.6544L5.63732 20.0535C6.10504 21.8723 7.12665 22.8051 9.15756 22.8051L22.4138 22.8051C24.4571 22.8051 25.4664 21.8956 25.9464 20.0535L26.3157 18.6544L5.26805 18.6544ZM4.86188 17.0571L26.7341 17.0571L29.0481 8.07974L28.0389 7.53176L22.3647 11.4492C21.9461 11.729 21.663 11.6241 21.4291 11.3093L16.0873 3.66099L15.4965 3.63767L10.1053 11.3442C9.89608 11.6474 9.6499 11.7407 9.23141 11.4608L3.66795 7.61338L2.48633 7.90485L4.86188 17.0571ZM2.94174 10.4115C4.56647 10.4115 5.87117 9.16403 5.87117 7.61338C5.87117 6.09772 4.56647 4.83854 2.94174 4.83854C1.31702 4.83854 0 6.08606 0 7.61338C0 9.16403 1.32932 10.4115 2.94174 10.4115ZM15.7919 5.56139C17.4043 5.56139 18.7213 4.31389 18.7213 2.7749C18.7213 1.25923 17.4043 6.10352e-05 15.7919 6.10352e-05C14.1549 6.10352e-05 12.8501 1.24758 12.8501 2.7749C12.8501 4.31389 14.1672 5.56139 15.7919 5.56139ZM28.6297 10.4115C30.2421 10.4115 31.5714 9.16403 31.5714 7.61338C31.5714 6.08606 30.2544 4.83854 28.6297 4.83854C27.0173 4.83854 25.7003 6.09772 25.7003 7.61338C25.7003 9.16403 27.0173 10.4115 28.6297 10.4115Z" fill="rgb(38.25,38.25,38.25)" fill-rule="nonzero" />
	</g>
</svg>
