<svg viewBox="0 0 87.3096 87.3101" xmlns="http://www.w3.org/2000/svg" xmlns:xlink="http://www.w3.org/1999/xlink" width="87.309570" height="87.310059" fill="none">
	<rect id="Abstract Design" width="87.309998" height="87.309998" x="0.000000" y="0.000000" fill="rgb(255,255,255)" fill-opacity="0" />
	<g id="Group">
		<path id="Vector" d="M58.21 14.55L72.76 0L87.31 0L87.31 14.55L72.76 29.1L58.21 29.1L58.21 14.55Z" fill="rgb(255,222.36,204)" fill-rule="nonzero" />
		<path id="Vector" d="M87.3098 0L72.7598 0L72.7598 14.55L87.3098 14.55L87.3098 0Z" fill="rgb(255,140.76,76.5)" fill-rule="evenodd" />
	</g>
	<g id="Group">
		<path id="Vector" d="M58.21 43.6601L72.76 29.1001L87.31 29.1001L87.31 43.6601L72.76 58.2101L58.21 58.2101L58.21 43.6601Z" fill="rgb(255,222.36,204)" fill-rule="nonzero" />
		<path id="Vector" d="M87.3098 29.1001L72.7598 29.1001L72.7598 43.6501L87.3098 43.6501L87.3098 29.1001Z" fill="rgb(255,140.76,76.5)" fill-rule="evenodd" />
	</g>
	<g id="Group">
		<path id="Vector" d="M29.0996 14.55L43.6596 0L58.2096 0L58.2096 14.55L43.6596 29.1L29.0996 29.1L29.0996 14.55Z" fill="rgb(255,222.36,204)" fill-rule="nonzero" />
		<path id="Vector" d="M58.2102 0L43.6602 0L43.6602 14.55L58.2102 14.55L58.2102 0Z" fill="rgb(255,140.76,76.5)" fill-rule="evenodd" />
	</g>
	<g id="Group">
		<path id="Vector" d="M29.0996 43.6601L43.6596 29.1001L58.2096 29.1001L58.2096 43.6601L43.6596 58.2101L29.0996 58.2101L29.0996 43.6601Z" fill="rgb(255,222.36,204)" fill-rule="nonzero" />
		<path id="Vector" d="M58.2102 29.1001L43.6602 29.1001L43.6602 43.6501L58.2102 43.6501L58.2102 29.1001Z" fill="rgb(255,140.76,76.5)" fill-rule="evenodd" />
	</g>
	<g id="Group">
		<path id="Vector" d="M0 14.55L14.55 0L29.1 0L29.1 14.55L14.55 29.1L0 29.1L0 14.55Z" fill="rgb(255,222.36,204)" fill-rule="nonzero" />
		<path id="Vector" d="M29.0998 0L14.5498 0L14.5498 14.55L29.0998 14.55L29.0998 0Z" fill="rgb(255,140.76,76.5)" fill-rule="evenodd" />
	</g>
	<g id="Group">
		<path id="Vector" d="M0 43.6601L14.55 29.1001L29.1 29.1001L29.1 43.6601L14.55 58.2101L0 58.2101L0 43.6601Z" fill="rgb(255,222.36,204)" fill-rule="nonzero" />
		<path id="Vector" d="M29.0998 29.1001L14.5498 29.1001L14.5498 43.6501L29.0998 43.6501L29.0998 29.1001Z" fill="rgb(255,140.76,76.5)" fill-rule="evenodd" />
	</g>
	<g id="Group">
		<path id="Vector" d="M58.21 72.76L72.76 58.21L87.31 58.21L87.31 72.76L72.76 87.31L58.21 87.31L58.21 72.76Z" fill="rgb(255,222.36,204)" fill-rule="nonzero" />
		<path id="Vector" d="M87.3098 58.21L72.7598 58.21L72.7598 72.76L87.3098 72.76L87.3098 58.21Z" fill="rgb(255,140.76,76.5)" fill-rule="evenodd" />
	</g>
	<g id="Group">
		<path id="Vector" d="M29.0996 72.76L43.6596 58.21L58.2096 58.21L58.2096 72.76L43.6596 87.31L29.0996 87.31L29.0996 72.76Z" fill="rgb(255,222.36,204)" fill-rule="nonzero" />
		<path id="Vector" d="M58.2102 58.21L43.6602 58.21L43.6602 72.76L58.2102 72.76L58.2102 58.21Z" fill="rgb(255,140.76,76.5)" fill-rule="evenodd" />
	</g>
	<g id="Group">
		<path id="Vector" d="M0 72.76L14.55 58.21L29.1 58.21L29.1 72.76L14.55 87.31L0 87.31L0 72.76Z" fill="rgb(255,222.36,204)" fill-rule="nonzero" />
		<path id="Vector" d="M29.0998 58.21L14.5498 58.21L14.5498 72.76L29.0998 72.76L29.0998 58.21Z" fill="rgb(255,140.76,76.5)" fill-rule="evenodd" />
	</g>
</svg>
