<svg viewBox="0 0 30 30" xmlns="http://www.w3.org/2000/svg" xmlns:xlink="http://www.w3.org/1999/xlink" width="30.000000" height="30.000000" fill="none">
	<rect id="Icon" width="30.000000" height="30.000000" x="0.000000" y="0.000000" />
	<path id="Vector (Stroke)" d="M9 0C9.62132 0 10.125 0.50368 10.125 1.125L10.125 17.0819L16.0641 10.8453C16.4947 10.3974 17.2069 10.3834 17.6548 10.8141C18.1026 11.2447 18.1166 11.9569 17.6859 12.4047L9.81094 20.6547C9.59883 20.8753 9.30602 21 9 21C8.69398 21 8.40117 20.8753 8.18906 20.6547L0.314064 12.4047C-0.116579 11.9569 -0.102614 11.2447 0.345254 10.8141C0.793122 10.3834 1.5053 10.3974 1.93594 10.8453L7.875 17.0819L7.875 1.125C7.875 0.50368 8.37868 0 9 0Z" fill="rgb(38.25,38.25,38.25)" fill-rule="evenodd" transform="matrix(-4.37114e-08,-1,1,-4.37114e-08,4.5,24)" />
</svg>
