<svg viewBox="0 0 24 17.0125" xmlns="http://www.w3.org/2000/svg" xmlns:xlink="http://www.w3.org/1999/xlink" width="24.000000" height="17.012451" fill="none" customFrame="#000000">
	<path id="Vector" d="M21.2011 0L2.79891 0C1.25288 0 0 1.25287 0 2.79848L0 14.2138C0 15.7595 1.25288 17.0123 2.79891 17.0123L21.2011 17.0123C22.7467 17.0123 24 15.7595 24 14.2138L24 2.79848C24 1.25287 22.7467 0 21.2011 0ZM22.6636 14.9678L22.1308 15.5988L14.6699 9.50963L13.5144 10.609C12.6581 11.3954 11.342 11.3954 10.4856 10.609L9.33014 9.50963L1.86919 15.5988L1.33641 14.9678L8.34141 8.56861L1.29052 1.94217L1.70738 1.38984L12 9.18867L22.2926 1.38984L22.7091 1.94217L15.6586 8.56861L22.6636 14.9678Z" fill="rgb(38.25,38.25,38.25)" fill-rule="nonzero" />
</svg>
