<svg viewBox="0 0 24 24" xmlns="http://www.w3.org/2000/svg" xmlns:xlink="http://www.w3.org/1999/xlink" width="24.000000" height="24.000000" fill="none">
	<rect id="Icon" width="24.000000" height="24.000000" x="0.000000" y="0.000000" />
	<path id="Subtract" d="M22.5 6.75L22.5 6.90783L12.7861 12.8856C12.304 13.1823 11.696 13.1823 11.2139 12.8856L1.5 6.90783L1.5 6.75C1.5 5.09315 2.84315 3.75 4.5 3.75L19.5 3.75C21.1569 3.75 22.5 5.09315 22.5 6.75ZM1.5 8.6691L1.5 17.25C1.5 18.9069 2.84315 20.25 4.5 20.25L19.5 20.25C21.1569 20.25 22.5 18.9069 22.5 17.25L22.5 8.6691L13.5723 14.1631C12.6081 14.7564 11.3919 14.7564 10.4277 14.1631L1.5 8.6691Z" fill="rgb(38.25,38.25,38.25)" fill-rule="evenodd" />
</svg>
