<svg viewBox="0 0 617 24" xmlns="http://www.w3.org/2000/svg" xmlns:xlink="http://www.w3.org/1999/xlink" width="617.000000" height="24.000000" fill="none" customFrame="#000000">
	<defs>
		<clipPath id="clipPath_0">
			<rect width="93.833328" height="20.000000" x="521.166748" y="2.000000" fill="rgb(255,255,255)" />
		</clipPath>
		<clipPath id="clipPath_1">
			<rect width="76.833328" height="12.000000" x="521.166748" y="6.000000" fill="rgb(255,255,255)" />
		</clipPath>
		<clipPath id="clipPath_2">
			<rect width="93.833328" height="12.000000" x="417.333496" y="6.000000" fill="rgb(255,255,255)" />
		</clipPath>
		<clipPath id="clipPath_3">
			<rect width="93.833336" height="12.000000" x="313.500000" y="6.000000" fill="rgb(255,255,255)" />
		</clipPath>
		<clipPath id="clipPath_4">
			<rect width="93.833328" height="12.000000" x="209.666748" y="6.000000" fill="rgb(255,255,255)" />
		</clipPath>
		<clipPath id="clipPath_5">
			<rect width="93.833328" height="12.000000" x="105.833374" y="6.000000" fill="rgb(255,255,255)" />
		</clipPath>
		<clipPath id="clipPath_6">
			<rect width="93.833336" height="20.000000" x="2.000000" y="2.000000" fill="rgb(255,255,255)" />
		</clipPath>
		<clipPath id="clipPath_7">
			<rect width="79.833336" height="12.000000" x="16.000000" y="6.000000" fill="rgb(255,255,255)" />
		</clipPath>
	</defs>
	<rect id="Container" width="613.000000" height="20.000000" x="2.000000" y="2.000000" />
	<g id="Sub Container" customFrame="url(#clipPath_0)">
		<rect id="Sub Container" width="93.833328" height="20.000000" x="521.166748" y="2.000000" />
		<g id="Container" customFrame="url(#clipPath_1)">
			<rect id="Container" width="76.833328" height="12.000000" x="521.166748" y="6.000000" fill="rgb(255,190.039,153)" />
			<line id="Line" x1="521.166748" x2="592.000061" y1="11" y2="11" stroke="rgb(0,0,0)" stroke-width="2" />
		</g>
		<circle id="Shape" cx="605" cy="12" r="10" fill="rgb(255,255,255)" />
		<circle id="Shape" cx="605" cy="12" r="11" stroke="rgb(38.25,38.25,38.25)" stroke-width="2" />
	</g>
	<g id="Sub Container" customFrame="url(#clipPath_2)">
		<rect id="Sub Container" width="93.833328" height="12.000000" x="417.333496" y="6.000000" fill="rgb(255,190.039,153)" />
		<line id="Line" x1="417.333496" x2="505.166809" y1="11" y2="11" stroke="rgb(0,0,0)" stroke-width="2" />
	</g>
	<g id="Sub Container" customFrame="url(#clipPath_3)">
		<rect id="Sub Container" width="93.833336" height="12.000000" x="313.500000" y="6.000000" fill="rgb(255,190.039,153)" />
		<line id="Line" x1="313.5" x2="401.333344" y1="11" y2="11" stroke="rgb(0,0,0)" stroke-width="2" />
	</g>
	<g id="Sub Container" customFrame="url(#clipPath_4)">
		<rect id="Sub Container" width="93.833328" height="12.000000" x="209.666748" y="6.000000" fill="rgb(255,190.039,153)" />
		<line id="Line" x1="209.666748" x2="297.500061" y1="11" y2="11" stroke="rgb(0,0,0)" stroke-width="2" />
	</g>
	<g id="Sub Container" customFrame="url(#clipPath_5)">
		<rect id="Sub Container" width="93.833328" height="12.000000" x="105.833374" y="6.000000" fill="rgb(255,190.039,153)" />
		<line id="Line" x1="105.833374" x2="193.666702" y1="11" y2="11" stroke="rgb(0,0,0)" stroke-width="2" />
	</g>
	<g id="Sub Container" customFrame="url(#clipPath_6)">
		<rect id="Sub Container" width="93.833336" height="20.000000" x="2.000000" y="2.000000" />
		<g id="Container" customFrame="url(#clipPath_7)">
			<rect id="Container" width="79.833336" height="12.000000" x="16.000000" y="6.000000" fill="rgb(255,190.039,153)" />
			<line id="Line" x1="16" x2="89.8333359" y1="11" y2="11" stroke="rgb(0,0,0)" stroke-width="2" />
		</g>
		<circle id="Shape" cx="12" cy="12" r="10" fill="rgb(255,255,255)" />
		<circle id="Shape" cx="12" cy="12" r="11" stroke="rgb(38.25,38.25,38.25)" stroke-width="2" />
	</g>
</svg>
