<svg viewBox="0 0 15 12" xmlns="http://www.w3.org/2000/svg" xmlns:xlink="http://www.w3.org/1999/xlink" width="15.000000" height="12.000000" fill="none" customFrame="#000000">
	<path id="Vector (Stroke)" d="M0 6C7.40917e-09 5.37868 0.50368 4.875 1.125 4.875L11.0819 4.875L7.84525 1.93594C7.39738 1.5053 7.38342 0.793122 7.81406 0.345254C8.24471 -0.102614 8.95688 -0.116579 9.40475 0.314064L14.6547 5.18906C14.8753 5.40117 15 5.69398 15 6C15 6.30602 14.8753 6.59883 14.6547 6.81094L9.40475 11.6859C8.95688 12.1166 8.24471 12.1026 7.81406 11.6547C7.38342 11.2069 7.39738 10.4947 7.84525 10.0641L11.0819 7.125L1.125 7.125C0.50368 7.125 -7.40917e-09 6.62132 0 6Z" fill="rgb(51,51,51)" fill-rule="evenodd" />
</svg>
