<svg viewBox="0 0 39.5554 39.5901" xmlns="http://www.w3.org/2000/svg" xmlns:xlink="http://www.w3.org/1999/xlink" width="39.555420" height="39.590088" fill="none" customFrame="#000000">
	<g id="Abstract Design" opacity="0.899999976">
		<g id="Group">
			<path id="Vector" d="M23.7976 0.728271C23.8903 0.738202 23.9798 0.748135 24.0725 0.761376C23.9831 0.748135 23.8903 0.738202 23.7976 0.728271Z" fill="rgb(38.25,38.25,38.25)" fill-rule="nonzero" />
			<path id="Vector" d="M29.5215 2.57567L29.0216 2.30753C29.0084 2.3009 28.9918 2.29097 28.9786 2.28435C28.9256 2.25787 28.8726 2.23137 28.8197 2.20489C28.8528 2.22144 28.8892 2.238 28.9256 2.25456C28.8461 2.21152 28.7667 2.17179 28.6872 2.12876L28.3363 1.96985C28.3661 1.98309 28.3992 1.99965 28.429 2.01289C27.9987 1.81426 27.5617 1.63549 27.1115 1.47659C25.1881 1.02306 23.2051 0.834354 19.792 0.778076C26.1183 1.08926 28.29 1.99303 29.0183 2.30421C29.1871 2.39028 29.356 2.47967 29.5215 2.57567Z" fill="rgb(38.25,38.25,38.25)" fill-rule="nonzero" />
			<path id="Vector" d="M24.4864 0.576052C24.2381 0.516463 23.9898 0.456874 23.7779 0.410527L23.6455 0.384038C22.9172 0.268171 21.4704 0.496602 19.792 0.784615C19.9377 0.764752 20.08 0.748198 20.2257 0.731645C23.0032 0.413838 23.8077 0.466809 24.4864 0.579366L24.4864 0.576052Z" fill="rgb(38.25,38.25,38.25)" fill-rule="nonzero" />
			<path id="Vector" d="M22.4369 0.178709C22.2185 0.148915 21.947 0.119121 21.7352 0.0959473C21.7352 0.0959473 21.7285 0.0959473 21.7252 0.0959473C21.6855 0.105879 21.6789 0.109192 19.792 0.78122C21.9834 0.198575 22.1986 0.195261 22.4932 0.18864C22.4767 0.18864 22.4568 0.185334 22.4369 0.182023L22.4369 0.178709Z" fill="rgb(38.25,38.25,38.25)" fill-rule="nonzero" />
			<path id="Vector" d="M13.0817 38.4313C13.128 38.4478 13.1777 38.4644 13.2273 38.4842C13.5782 38.6034 14.0152 38.7391 14.3496 38.8418C14.6972 38.9411 15.1639 39.0503 15.5148 39.1331C10.9497 38.0175 7.05336 35.518 3.93823 31.6978L4.8155 32.7803C4.92474 32.9028 5.02075 33.012 5.11344 33.1113C5.43786 33.449 5.82187 33.8396 6.21251 34.217C6.45417 34.4388 6.75542 34.7037 7.17253 35.0744C7.38771 35.2466 7.63931 35.4386 7.89752 35.6306C10.1122 37.2627 11.6251 37.8652 13.085 38.4346L13.0817 38.4313Z" fill="rgb(38.25,38.25,38.25)" fill-rule="nonzero" />
			<path id="Vector" d="M20.7852 0.0529586C20.7554 0.0430272 20.719 0.0297934 20.6892 0.019862C20.6892 0.019862 20.6859 0.019862 20.6826 0.019862C20.4774 0.0099306 20.3516 0.0066173 20.3383 0.0066173C20.2225 0.0066173 20.0768 0 19.9543 0C20.186 0.00993141 20.1927 0.0165495 20.2986 0.152279C20.2545 0.311181 20.0867 0.520842 19.7954 0.781266C20.7257 0.264833 20.7554 0.165515 20.7886 0.0529586L20.7852 0.0529586Z" fill="rgb(38.25,38.25,38.25)" fill-rule="nonzero" />
			<path id="Vector" d="M1.33279 27.0433C4.96107 35.6109 14.0483 38.8915 17.2595 39.4312C17.2761 39.4312 17.2893 39.4345 17.3058 39.4378C17.4747 39.4576 17.6865 39.4808 17.8521 39.4974L18.1897 39.5272C18.1897 39.5272 18.203 39.5272 18.2063 39.5272C16.3127 39.3517 3.28928 35.5082 0.356201 23.6865C0.389306 23.862 0.4191 24.0341 0.452205 24.193C0.670697 25.0173 1.00505 26.0966 1.28645 26.9176C1.303 26.9606 1.31955 27.0003 1.33279 27.0433Z" fill="rgb(38.25,38.25,38.25)" fill-rule="nonzero" />
			<path id="Vector" d="M19.2391 0.152192C19.6894 0.321027 19.7125 0.420339 19.792 0.781181C20.1197 0.0429447 19.4378 0.0297068 18.8353 0.0197754C18.6234 0.0297068 18.342 0.0495644 18.1334 0.0661168L17.9348 0.0826753C18.2427 0.0628124 18.8849 0.0197734 19.2391 0.152192Z" fill="rgb(38.25,38.25,38.25)" fill-rule="nonzero" />
			<path id="Vector" d="M19.345 39.5868C19.4212 39.5868 19.494 39.5901 19.5702 39.5901L19.6033 39.5901C19.6033 39.5901 19.6297 39.5901 19.6397 39.5901C19.7257 39.5901 19.8085 39.5901 19.8946 39.5901C19.9674 39.5901 20.0402 39.5901 20.1031 39.5901C20.1065 39.5901 20.1098 39.5901 20.1131 39.5901C18.6101 39.5637 -2.89474 31.4133 0.58126 14.8542C0.58126 14.8542 0.58126 14.8542 0.58126 14.8576C0.462082 15.3243 0.346216 15.9533 0.246901 16.4234C0.150898 17.0259 0.0714462 17.837 0.00523661 18.4428C-0.348984 33.2969 17.3786 39.3981 19.345 39.5868Z" fill="rgb(38.25,38.25,38.25)" fill-rule="nonzero" />
			<path id="Vector" d="M16.1042 0.344337C16.0645 0.350958 16.0214 0.360892 15.9817 0.367513C18.4016 -0.0462966 19.4113 0.549589 19.7954 0.781323C19.1101 0.0265339 17.9183 0.0397734 16.1075 0.344337L16.1042 0.344337Z" fill="rgb(38.25,38.25,38.25)" fill-rule="nonzero" />
			<path id="Vector" d="M2.51478 10.0671C-6.22157 26.9108 18.2495 38.802 21.1759 39.5403C21.1958 39.5403 21.2157 39.5403 21.2355 39.537L21.3646 39.527C21.3845 39.527 21.4044 39.5237 21.4275 39.5204C21.5765 39.5072 21.7553 39.4873 21.9076 39.4741C21.9274 39.4741 21.9473 39.4708 21.9638 39.4675C18.4978 36.8323 14.2802 35.3956 10.9399 32.5618C9.30457 31.1747 5.47435 27.9271 3.23647 23.5838C-1.24261 14.8938 2.74321 9.35205 4.6997 6.96851C4.63018 7.04796 4.56397 7.12741 4.49776 7.20355L4.16671 7.59749C3.65028 8.30925 2.99811 9.28584 2.53134 10.0373C2.52471 10.0472 2.5214 10.0572 2.51478 10.0671Z" fill="rgb(38.25,38.25,38.25)" fill-rule="nonzero" />
			<path id="Vector" d="M15.2102 0.532907C15.2102 0.532907 15.2334 0.526286 15.2466 0.522976C15.2168 0.529597 15.1804 0.536217 15.1539 0.542838C14.9354 0.592495 14.6507 0.668635 14.4355 0.728224C13.9919 0.850711 13.406 1.03279 12.9756 1.195C12.7108 1.29432 12.3599 1.42674 12.1017 1.53598C11.7905 1.6684 11.3833 1.86041 11.0754 2.00276C10.7609 2.14842 10.3537 2.3636 10.0558 2.53906C9.70485 2.7443 9.27118 3.01245 8.88716 3.26074C4.93112 5.98195 1.80932 10.3485 2.23968 15.2711C3.25932 26.8843 16.4119 34.8493 21.3611 37.8486C22.5043 38.5416 23.109 39.0227 23.1753 39.292C23.1753 39.292 23.1984 39.2887 23.2084 39.2854C23.4798 39.2357 23.8208 39.1629 24.0923 39.1066C24.1022 39.1066 24.1121 39.1033 24.1221 39.1C24.2181 39.0669 24.2876 38.9278 24.3538 38.8484C24.1287 38.4147 23.6884 38.1035 21.3081 36.5443C15.1837 32.532 9.01958 27.9172 5.42107 21.379C-2.69958 6.61756 13.0485 -1.01971 19.7952 0.777879C18.4876 0.271376 16.8952 0.215098 15.2135 0.529593L15.2102 0.532907Z" fill="rgb(38.25,38.25,38.25)" fill-rule="nonzero" />
			<path id="Vector" d="M22.0563 34.8957C25.7839 37.5308 26.6711 38.1565 25.4926 38.7392C25.5058 38.7359 25.5191 38.7325 25.529 38.7292C25.7111 38.673 25.9163 38.6034 26.1183 38.5372C26.2573 38.4909 26.393 38.4412 26.5287 38.3916C28.1972 37.6169 26.7439 36.5443 23.2679 33.9853C19.4245 31.1549 14.6375 27.6325 10.5789 22.4814C-1.40506 7.27307 11.3866 -0.254949 19.7886 0.781231C10.2412 -1.28782 -10.3036 12.0335 22.053 34.8957L22.0563 34.8957Z" fill="rgb(38.25,38.25,38.25)" fill-rule="nonzero" />
			<path id="Vector" d="M24.248 31.9361C28.5947 35.2697 30.2234 36.5178 28.065 37.7625C28.0815 37.7559 28.0981 37.746 28.1146 37.7394C28.4755 37.5672 28.9257 37.3288 29.2733 37.1534C30.9551 36.1702 30.283 35.0281 29.3064 33.9422C25.218 29.397 19.7888 26.3844 15.601 21.9517C2.12395 7.68353 11.1649 0.585865 19.7921 0.784494C10.9994 -0.0166419 -4.69898 9.74264 24.248 31.9394L24.248 31.9361Z" fill="rgb(38.25,38.25,38.25)" fill-rule="nonzero" />
			<path id="Vector" d="M27.608 29.1786C31.7494 32.4957 33.2259 34.28 31.0145 36.0743C31.3919 35.8095 31.8719 35.4321 32.2493 35.1441C32.438 34.9885 32.6366 34.8196 32.8253 34.6508C34.5435 33.0783 33.5801 32.2276 22.0199 22.0445C5.26231 7.28642 12.8135 2.07572 18.2758 0.986572C13.3233 1.9102 -0.487988 6.66735 27.608 29.1786Z" fill="rgb(38.25,38.25,38.25)" fill-rule="nonzero" />
			<path id="Vector" d="M19.5703 0.797852C19.1631 0.834266 18.726 0.897167 18.2725 0.986549C18.8552 0.877305 19.312 0.821025 19.5703 0.797852Z" fill="rgb(38.25,38.25,38.25)" fill-rule="nonzero" />
			<path id="Vector" d="M19.792 0.78125C19.792 0.78125 19.6994 0.787867 19.5703 0.797798C19.6431 0.791177 19.7192 0.784561 19.792 0.78125Z" fill="rgb(38.25,38.25,38.25)" fill-rule="nonzero" />
			<path id="Vector" d="M26.8367 22.6835C33.706 28.212 36.2849 30.7412 34.0503 33.4889C34.0668 33.4723 34.0801 33.4591 34.0933 33.4425C34.4442 33.0651 34.868 32.5652 35.199 32.1845C35.2056 32.1746 35.2123 32.168 35.2189 32.1581C37.1754 29.5957 35.305 26.8977 27.2406 20.631C6.19908 4.28383 17.3455 1.23158 19.7953 0.784668C18.0109 1.00978 3.0508 3.54229 26.84 22.6835L26.8367 22.6835Z" fill="rgb(38.25,38.25,38.25)" fill-rule="nonzero" />
			<path id="Vector" d="M28.257 18.2605C36.03 24.0671 38.1686 27.0366 36.7153 30.0061C36.7749 29.9068 36.8312 29.8108 36.8874 29.7148L36.9404 29.6221C36.9801 29.5526 37.0165 29.4897 37.053 29.4268L37.4966 28.5727C37.5495 28.4634 37.6025 28.3542 37.6555 28.2483C39.3902 24.2691 32.8155 19.4821 28.4523 16.3074C14.2337 5.96212 15.8956 2.15838 19.792 0.787842C16.465 1.65519 10.6253 5.09809 28.257 18.2672L28.257 18.2605Z" fill="rgb(38.25,38.25,38.25)" fill-rule="nonzero" />
			<path id="Vector" d="M28.6344 13.7517C35.4208 18.532 39.486 21.7299 38.6419 25.7191C38.6816 25.5833 38.7246 25.4476 38.761 25.3152C38.8968 24.8186 39.0325 24.2592 39.1417 23.8122C39.7244 19.8364 35.6194 16.804 28.876 12.1925C24.4201 9.14352 16.1274 3.46936 19.7921 0.78125C14.0452 3.47267 25.026 11.2093 28.6344 13.7517Z" fill="rgb(38.25,38.25,38.25)" fill-rule="nonzero" />
			<path id="Vector" d="M29.1343 10.2361C36.7815 15.1985 39.3802 17.4496 39.5193 20.866C39.5226 20.7998 39.5292 20.7303 39.5325 20.6641L39.5557 19.8298L39.5358 19.0221C39.5325 18.9294 39.5292 18.84 39.5226 18.7473C39.228 15.1621 34.4509 12.2058 28.4093 8.4716C24.1587 5.84639 19.3419 2.86696 19.7955 0.784668C17.8059 2.89013 24.6255 7.31293 29.1376 10.2394L29.1343 10.2361Z" fill="rgb(38.25,38.25,38.25)" fill-rule="nonzero" />
			<path id="Vector" d="M28.6376 7.06795C35.6824 11.067 38.3341 13.0103 39.1783 15.94C39.0723 15.4335 38.9002 14.7913 38.7578 14.2484C38.7247 14.1358 38.6916 14.0266 38.6585 13.914C37.5131 10.9346 33.6762 8.79602 27.0122 5.29354C22.3013 2.81399 20.7487 1.84402 19.792 0.784668C20.3415 2.36046 23.8209 4.33681 28.6376 7.07126L28.6376 7.06795Z" fill="rgb(38.25,38.25,38.25)" fill-rule="nonzero" />
			<path id="Vector" d="M37.652 11.3284C37.6222 11.2688 37.5957 11.2093 37.5659 11.1497L37.1654 10.3585L36.8972 9.88506C36.8476 9.79899 36.7979 9.71292 36.7449 9.62685C35.8379 8.21658 34.1959 7.16716 31.8455 5.93567C27.9623 3.90303 23.7978 2.5358 19.7954 0.78125C21.0435 1.57576 23.3376 2.6285 26.2409 3.96262C33.9443 7.50152 36.3179 9.03096 37.6553 11.3284L37.652 11.3284Z" fill="rgb(38.25,38.25,38.25)" fill-rule="nonzero" />
			<path id="Vector" d="M35.2485 7.47835C35.2121 7.432 35.179 7.39228 35.1392 7.34262C35.1161 7.31282 35.0929 7.28634 35.0664 7.25654C35.0366 7.22013 35.0068 7.18372 34.977 7.1473C34.6857 6.80963 34.358 6.44216 34.0965 6.14753C32.375 4.38305 27.5616 2.57884 19.792 0.78125C31.5772 4.31353 33.8581 5.96877 35.2485 7.47835Z" fill="rgb(38.25,38.25,38.25)" fill-rule="nonzero" />
			<path id="Vector" d="M32.0177 4.26387C31.7297 4.04207 31.4152 3.81033 31.1437 3.6117C31.0875 3.57198 31.0312 3.53557 30.9749 3.49585C29.1045 2.31732 25.347 1.40362 19.792 0.78125C23.2482 1.29437 29.4289 2.45304 32.2627 4.4625C32.1799 4.39298 32.0972 4.32677 32.0177 4.26387Z" fill="rgb(38.25,38.25,38.25)" fill-rule="nonzero" />
			<path id="Vector" d="M24.1751 0.777986C24.6353 0.840885 25.0922 0.923647 25.5358 1.02627C26.327 1.15869 26.4263 1.18849 27.0288 1.38381C27.0123 1.37719 26.9924 1.36726 26.9758 1.36395C26.6746 1.24477 26.2641 1.10572 25.9562 0.996479L25.9496 0.996479C25.2246 0.761435 24.3738 0.731646 23.3872 0.691921C23.4336 0.695231 23.4766 0.701845 23.523 0.705155C23.0198 0.658808 22.5066 0.632324 21.9869 0.632324C21.189 0.67205 21.0831 0.678678 19.792 0.784613C21.8445 0.698541 22.7715 0.71509 24.1751 0.7813L24.1751 0.777986ZM23.7944 0.731645C23.8871 0.741576 23.9765 0.751509 24.0692 0.764751C23.9798 0.751509 23.8871 0.741576 23.7944 0.731645Z" fill="rgb(38.25,38.25,38.25)" fill-rule="nonzero" />
		</g>
	</g>
</svg>
