<svg viewBox="0 0 182.693 40" xmlns="http://www.w3.org/2000/svg" xmlns:xlink="http://www.w3.org/1999/xlink" width="182.693359" height="40.000000" fill="none" customFrame="#000000">
	<defs>
		<clipPath id="clipPath_0">
			<rect width="40.000000" height="40.000000" x="0.000000" y="0.000000" fill="rgb(255,255,255)" />
		</clipPath>
	</defs>
	<rect id="Logo" width="182.693314" height="40.000000" x="0.000000" y="0.000000" />
	<g style="mix-blend-mode:normal">
		<g id="shape-14" customFrame="url(#clipPath_0)">
			<rect id="shape-14" width="40.000000" height="40.000000" x="0.000000" y="0.000000" />
			<g style="mix-blend-mode:normal">
				<path id="shape-14" d="M3.33337 19.9999L3.33337 9.99992L10 3.33325L20 3.33325L3.33337 19.9999ZM20 36.6666L3.33337 19.9999L3.33337 29.9999L10 36.6666L20 36.6666ZM36.6667 19.9999L36.6667 9.99992L30 3.33325L20 3.33325L36.6667 19.9999ZM36.6667 19.9999L20 36.6666L30 36.6666L36.6667 29.9999L36.6667 19.9999ZM11.6667 19.9999L20 11.6666L28.3334 19.9999L20 28.3333L11.6667 19.9999Z" fill="rgb(25.5,25.5,25.5)" fill-rule="evenodd" />
			</g>
		</g>
	</g>
	<path id="Text Button" d="M77.7848 27.4999L77.7848 11.8999L80.1682 11.8999L80.1682 27.4999L77.7848 27.4999ZM46.6466 27.4999L46.6466 12.3332L49.1383 12.3332L49.1383 25.2249L56.2883 25.2249L56.2883 27.4999L46.6466 27.4999ZM59.4474 15.1932C59.0429 15.1932 58.7035 15.056 58.429 14.7816Q58.2817 14.6261 58.19 14.4427Q58.039 14.1407 58.039 13.7632C58.039 13.3588 58.169 13.0193 58.429 12.7449Q58.606 12.5679 58.819 12.467Q59.1015 12.3332 59.4474 12.3332C59.8663 12.3332 60.2057 12.4705 60.4657 12.7449Q60.613 12.9004 60.7047 13.0838Q60.8557 13.3858 60.8557 13.7632Q60.8557 14.1407 60.7047 14.4427Q60.613 14.6261 60.4657 14.7816Q60.3338 14.9208 60.1747 15.0129Q59.8632 15.1932 59.4474 15.1932ZM99.0571 27.4999L99.0571 12.3332L101.549 12.3332L101.549 25.2249L108.699 25.2249L108.699 27.4999L99.0571 27.4999ZM64.8938 27.4999L64.8938 19.2666L62.4022 19.2666L62.4022 17.0999L64.8938 17.0999L64.8938 12.7666L67.2772 12.7666L67.2772 17.0999L71.1772 17.0999L71.1772 12.7666L73.5605 12.7666L73.5605 17.0999L76.0522 17.0999L76.0522 19.2666L73.5605 19.2666L73.5605 27.4999L71.1772 27.4999L71.1772 19.2666L67.2772 19.2666L67.2772 27.4999L64.8938 27.4999ZM87.6523 27.7166Q86.3634 27.7166 85.2815 27.2433L85.2807 27.2429Q85.0536 27.1435 84.8356 27.0232Q84.2556 26.6874 83.7855 26.2369Q83.2546 25.7282 82.864 25.0732C82.3873 24.2499 82.149 23.3255 82.149 22.2999C82.149 21.2743 82.3873 20.3571 82.864 19.5482C83.3406 18.7249 83.9834 18.0749 84.7923 17.5982Q85.198 17.3634 85.6317 17.2057Q86.5184 16.8832 87.5223 16.8832Q88.801 16.8832 89.8107 17.4044Q89.9473 17.4749 90.079 17.5549C90.8301 18.0027 91.4151 18.6166 91.834 19.3966C92.2673 20.1766 92.484 21.0649 92.484 22.0616C92.484 22.2349 92.4695 22.4155 92.4406 22.6032C92.4262 22.7766 92.3973 22.9716 92.354 23.1882L84.5953 23.1882C84.6602 23.4591 84.7547 23.7119 84.879 23.9466C85.139 24.4377 85.5073 24.8205 85.984 25.0949Q86.699 25.4849 87.6306 25.4849C88.1651 25.4849 88.6562 25.391 89.104 25.2032C89.5662 25.0155 89.9562 24.741 90.274 24.3799L91.7906 25.9182C91.2851 26.5105 90.6712 26.9582 89.949 27.2616C89.2267 27.5649 88.4612 27.7166 87.6523 27.7166ZM115.116 27.7166Q113.828 27.7166 112.746 27.2432L112.745 27.2428Q112.518 27.1434 112.3 27.0232C111.476 26.5466 110.819 25.8966 110.328 25.0732C109.851 24.2499 109.613 23.3255 109.613 22.2999C109.613 21.2743 109.851 20.3571 110.328 19.5482C110.805 18.7249 111.448 18.0749 112.257 17.5982C113.08 17.1216 113.99 16.8832 114.986 16.8832C115.954 16.8832 116.806 17.1071 117.543 17.5549C118.294 18.0027 118.879 18.6166 119.298 19.3966C119.731 20.1766 119.948 21.0649 119.948 22.0616C119.948 22.2349 119.934 22.4155 119.905 22.6032C119.89 22.7766 119.861 22.9716 119.818 23.1882L112.06 23.1882C112.124 23.4591 112.219 23.7119 112.343 23.9466C112.603 24.4377 112.971 24.8205 113.448 25.0949C113.925 25.3549 114.474 25.4849 115.095 25.4849C115.629 25.4849 116.12 25.391 116.568 25.2032C117.03 25.0155 117.42 24.741 117.738 24.3799L119.255 25.9182C118.749 26.5105 118.135 26.9582 117.413 27.2616Q117.093 27.3959 116.762 27.4906L116.761 27.4908Q115.971 27.7166 115.116 27.7166ZM126.214 27.7166C125.275 27.7166 124.423 27.4782 123.657 27.0016C122.906 26.5249 122.306 25.8821 121.859 25.0732Q121.762 24.8895 121.68 24.6996Q121.209 23.6126 121.209 22.3216Q121.209 20.8653 121.791 19.7003L121.793 19.6975Q121.825 19.6333 121.859 19.5699C122.306 18.7466 122.906 18.0966 123.657 17.6199C124.423 17.1288 125.275 16.8832 126.214 16.8832C127.008 16.8832 127.709 17.0566 128.315 17.4032C128.736 17.6283 129.097 17.913 129.399 18.2574L129.399 17.0999L131.782 17.0999L131.782 27.4999L129.399 27.4999L129.399 26.3584C129.106 26.6999 128.752 26.9865 128.337 27.2182C127.716 27.5505 127.008 27.7166 126.214 27.7166ZM136.81 18.1802C136.825 18.1594 136.839 18.1387 136.854 18.1182C137.446 17.2949 138.334 16.8832 139.519 16.8832C140.039 16.8832 140.508 16.9771 140.927 17.1649C141.346 17.3527 141.736 17.656 142.097 18.0749L140.537 19.6782C140.349 19.476 140.14 19.3316 139.909 19.2449C139.678 19.1582 139.41 19.1149 139.107 19.1149C138.443 19.1149 137.894 19.3243 137.46 19.7432C137.027 20.1621 136.81 20.8193 136.81 21.7149L136.81 27.4999L134.427 27.4999L134.427 17.0999L136.81 17.0999L136.81 18.1802ZM150.379 27.4999L150.379 21.4982C150.379 20.8049 150.155 20.2343 149.707 19.7866C149.274 19.3388 148.71 19.1149 148.017 19.1149Q147.383 19.1149 146.876 19.3684Q146.828 19.3922 146.782 19.4182C146.421 19.6205 146.139 19.9021 145.937 20.2632C145.735 20.6243 145.634 21.036 145.634 21.4982L145.634 27.4999L143.25 27.4999L143.25 17.0999L145.634 17.0999L145.634 18.275C145.918 17.9336 146.258 17.6503 146.652 17.4249C147.273 17.0638 147.966 16.8832 148.732 16.8832C149.512 16.8832 150.205 17.0855 150.812 17.4899C151.419 17.8799 151.895 18.3927 152.242 19.0282Q152.597 19.664 152.71 20.3402Q152.762 20.6549 152.762 20.9782L152.762 27.4999L150.379 27.4999ZM160.016 27.7166C158.976 27.7166 158.037 27.4855 157.199 27.0232C156.376 26.5466 155.718 25.8966 155.227 25.0732C154.751 24.2499 154.512 23.3255 154.512 22.2999C154.512 21.2743 154.751 20.3571 155.227 19.5482C155.704 18.7249 156.347 18.0749 157.156 17.5982C157.979 17.1216 158.889 16.8832 159.886 16.8832C160.853 16.8832 161.706 17.1071 162.442 17.5549C163.193 18.0027 163.778 18.6166 164.197 19.3966Q164.249 19.4902 164.297 19.5858Q164.847 20.6862 164.847 22.0616C164.847 22.2349 164.833 22.4155 164.804 22.6032C164.789 22.7766 164.761 22.9716 164.717 23.1882L156.959 23.1882C157.023 23.4591 157.118 23.7119 157.242 23.9466C157.502 24.4377 157.871 24.8205 158.347 25.0949Q159.062 25.4849 159.994 25.4849C160.528 25.4849 161.019 25.391 161.467 25.2032C161.929 25.0155 162.319 24.741 162.637 24.3799L164.154 25.9182C163.648 26.5105 163.034 26.9582 162.312 27.2616C161.59 27.5649 160.824 27.7166 160.016 27.7166ZM169.141 18.1802C169.155 18.1594 169.17 18.1387 169.184 18.1182C169.777 17.2949 170.665 16.8832 171.849 16.8832C172.369 16.8832 172.839 16.9771 173.258 17.1649C173.677 17.3527 174.067 17.656 174.428 18.0749L172.868 19.6782C172.68 19.476 172.471 19.3316 172.239 19.2449C172.008 19.1582 171.741 19.1149 171.438 19.1149C170.773 19.1149 170.224 19.3243 169.791 19.7432Q169.141 20.3716 169.141 21.7149L169.141 27.4999L166.758 27.4999L166.758 17.0999L169.141 17.0999L169.141 18.1802ZM178.75 27.7166C178.172 27.7166 177.616 27.6443 177.082 27.4999C176.547 27.341 176.056 27.1243 175.608 26.8499C175.161 26.561 174.771 26.2143 174.438 25.8099L175.955 24.2932Q176.466 24.8857 177.111 25.2085Q177.15 25.228 177.19 25.2466C177.667 25.4488 178.201 25.5499 178.793 25.5499C179.328 25.5499 179.732 25.4705 180.007 25.3116C180.281 25.1527 180.418 24.9216 180.418 24.6182C180.418 24.3005 180.288 24.0549 180.028 23.8816C179.768 23.7082 179.429 23.5638 179.01 23.4482C178.606 23.3182 178.172 23.1882 177.71 23.0582C177.262 22.9282 176.829 22.7549 176.41 22.5382C176.006 22.3071 175.673 21.9966 175.413 21.6066C175.153 21.2166 175.023 20.711 175.023 20.0899C175.023 19.4255 175.175 18.8549 175.478 18.3782C175.796 17.9016 176.237 17.5332 176.8 17.2732C177.378 17.0132 178.064 16.8832 178.858 16.8832C179.696 16.8832 180.433 17.0349 181.068 17.3382C181.718 17.6271 182.26 18.0677 182.693 18.6599L181.177 20.1766C180.873 19.801 180.527 19.5193 180.137 19.3316C179.747 19.1438 179.299 19.0499 178.793 19.0499C178.317 19.0499 177.948 19.1221 177.688 19.2666C177.428 19.411 177.298 19.6205 177.298 19.8949C177.298 20.1838 177.428 20.4077 177.688 20.5666C177.948 20.7255 178.281 20.8627 178.685 20.9782Q179.313 21.1516 179.985 21.3682C180.447 21.4982 180.881 21.686 181.285 21.9316C181.704 22.1627 182.043 22.4805 182.303 22.8849C182.563 23.2749 182.693 23.7877 182.693 24.4232C182.693 25.4343 182.339 26.236 181.632 26.8282C180.924 27.4205 179.963 27.7166 178.75 27.7166ZM58.2557 27.4999L58.2557 17.0999L60.639 17.0999L60.639 27.4999L58.2557 27.4999ZM84.6027 21.2382L90.138 21.2382C90.0756 20.9321 89.9837 20.6576 89.8623 20.4149C89.6456 19.9816 89.3351 19.6493 88.9306 19.4182C88.5406 19.1871 88.0567 19.0716 87.479 19.0716C86.8723 19.0716 86.3451 19.2016 85.8973 19.4616C85.4495 19.7216 85.1029 20.0899 84.8573 20.5666C84.7482 20.7719 84.6633 20.9958 84.6027 21.2382ZM112.067 21.2382L117.602 21.2382Q117.509 20.779 117.326 20.4149C117.11 19.9816 116.799 19.6493 116.395 19.4182C116.005 19.1871 115.521 19.0716 114.943 19.0716Q114.033 19.0716 113.361 19.4616C112.914 19.7216 112.567 20.0899 112.321 20.5666C112.212 20.7719 112.128 20.9958 112.067 21.2382ZM156.966 21.2382L162.501 21.2382Q162.408 20.779 162.226 20.4149C162.009 19.9816 161.698 19.6493 161.294 19.4182C160.904 19.1871 160.42 19.0716 159.842 19.0716Q158.932 19.0716 158.261 19.4616C157.813 19.7216 157.466 20.0899 157.221 20.5666C157.111 20.7719 157.027 20.9958 156.966 21.2382ZM126.604 25.4632Q127.461 25.4632 128.1 25.0895Q128.445 24.887 128.727 24.5749Q128.936 24.3493 129.092 24.0916Q129.55 23.3345 129.55 22.2999C129.55 21.6788 129.428 21.1299 129.182 20.6532C128.936 20.1766 128.59 19.8082 128.142 19.5482C127.709 19.2738 127.196 19.1366 126.604 19.1366C126.026 19.1366 125.513 19.2738 125.065 19.5482C124.632 19.8082 124.285 20.1766 124.025 20.6532C123.78 21.1299 123.657 21.6788 123.657 22.2999C123.657 22.921 123.78 23.4699 124.025 23.9466C124.285 24.4232 124.632 24.7988 125.065 25.0732C125.513 25.3332 126.026 25.4632 126.604 25.4632Z" fill="rgb(38.25,38.25,38.25)" fill-rule="evenodd" />
</svg>
